<svg id="Layer_1" data-name="Layer 1" xmlns="http://www.w3.org/2000/svg" viewBox="0 0 36.46088 35.06957"><defs><style>.cls-1{fill:#fff;}</style></defs><path class="cls-1" d="M16.3259,23.36817a20.4372,20.4372,0,0,1-8.35306-1.83858A.96651.96651,0,0,1,7.34125,20.323a.89912.89912,0,0,1,.8512-.61713.962.962,0,0,1,.4147.096,16.88384,16.88384,0,0,0,5.47543,1.52759,23.18641,23.18641,0,0,0,2.43117.1325,17.43217,17.43217,0,0,0,7.33546-1.51964l.08083-.0371c.05322-.02477.10608-.04942.16-.07158a1.17338,1.17338,0,0,1,.44907-.09423.86926.86926,0,0,1,.81529.52954.869.869,0,0,1-.4851,1.21944,29.12721,29.12721,0,0,1-5.803,1.6781c-.63217.06945-1.28533.10975-1.91691.14862C16.87286,23.33214,16.5992,23.349,16.3259,23.36817Z"/><path class="cls-1" d="M25.27866,12.40416a.2101.2101,0,0,1-.18251.20994c-.15589.0303-.31276.05624-.46754.09139a3.06813,3.06813,0,0,0-.73791.2632,2.77041,2.77041,0,0,0-1.1442,1.32714,4.16711,4.16711,0,0,0-.17026.73363.21034.21034,0,0,1-.2088.20092.21494.21494,0,0,1-.2203-.20168,3.65894,3.65894,0,0,0-.23284-.91074,2.74539,2.74539,0,0,0-1.33084-1.27209,4.68781,4.68781,0,0,0-.93746-.23761.20892.20892,0,0,1-.19121-.19645.21315.21315,0,0,1,.19414-.23067c.24008-.04443.48263-.08138.7179-.14465a2.98455,2.98455,0,0,0,1.342-.96652,2.25363,2.25363,0,0,0,.34884-.785c.04055-.16408.06716-.33169.09789-.4981a.21417.21417,0,0,1,.14056-.18031.20912.20912,0,0,1,.2202.04142.22815.22815,0,0,1,.06845.14865,3.63947,3.63947,0,0,0,.22411.87547,2.69179,2.69179,0,0,0,1.42686,1.33124,4.31009,4.31009,0,0,0,.811.18226.38919.38919,0,0,1,.14187.04541A.18914.18914,0,0,1,25.27866,12.40416Z"/><path class="cls-1" d="M7.49187,34.658a.06876.06876,0,0,1-.03219-.00822.06792.06792,0,0,1-.03356-.04269c-.0186-.071-.04474-.14475-.0678-.20981a1.1902,1.1902,0,0,1-.09954-.48834c.11552-1.28878.24474-2.55461.38161-3.89487l.11015-1.07942a.1657.1657,0,0,0-.1291-.17842c-.17762-.03927-.35239-.07762-.52544-.11529-.518-.11313-1.00112-.2186-1.48592-.34132A6.32636,6.32636,0,0,1,.693,22.50582,66.102,66.102,0,0,1,.75531,10.0095a6.26438,6.26438,0,0,1,4.77-5.40635A44.11139,44.11139,0,0,1,15.94482,3.32328c.40433,0,.81231.00605,1.21641.01792l-.90169,1.8076-.05365-.00012a44.34588,44.34588,0,0,0-9.84,1.12212A4.63967,4.63967,0,0,0,2.5233,10.37638,77.81754,77.81754,0,0,0,2.413,21.33474a6.24944,6.24944,0,0,0,.76767,3.15573,4.93575,4.93575,0,0,0,3.38654,2.17208c.70786.1395,1.42713.29,2.12277.43538l.22557.04714q.38851.08116.77806.16187a.06809.06809,0,0,1,.054.07374L9.283,30.77134a.16572.16572,0,0,0,.26575.14828c.60923-.46768,1.44117-.94016,2.13258-1.397.74838-.49451,1.52-1.00442,2.14355-1.49905a1.37435,1.37435,0,0,1,.75477-.31528c.30912-.00765.62019-.01119.979-.01119.27088,0,.53217.00206.78913.004l.01495.00011c.2508.00217.498.00422.74633.00422a22.78842,22.78842,0,0,0,2.36294-.1065,67.01862,67.01862,0,0,0,7.06681-1.111A4.49936,4.49936,0,0,0,29.979,22.23814c.074-1.10134.1282-2.25907.16119-3.44271l1.83739-.55855c-.0371,1.53112-.12,3.07309-.24669,4.58708a6.37518,6.37518,0,0,1-4.67395,5.433,37.80807,37.80807,0,0,1-9.92631,1.2922c-.49838,0-1.0172-.00856-1.542-.02534-.02934-.00091-.058-.00137-.08618-.00137a1.72186,1.72186,0,0,0-1.18912.4267c-.97007.80705-2.12848,1.615-3.24877,2.3965-.97337.679-1.97152,1.37519-2.82469,2.05554a1.22745,1.22745,0,0,1-.49656.19314c-.07694.01781-.15639.03619-.23024.06028A.0733.0733,0,0,1,7.49187,34.658Z"/><path class="cls-1" d="M27.31672,3.62505a.24011.24011,0,0,1-.20857.23991c-.17814.03462-.3574.06427-.53427.10443a3.50579,3.50579,0,0,0-.84324.30077,3.16583,3.16583,0,0,0-1.30751,1.51657,4.76314,4.76314,0,0,0-.19457.83835.24036.24036,0,0,1-.2386.22959.24561.24561,0,0,1-.25174-.23046,4.1814,4.1814,0,0,0-.26608-1.04074,3.13718,3.13718,0,0,0-1.5208-1.45366,5.356,5.356,0,0,0-1.07126-.27152.23873.23873,0,0,1-.2185-.22449.24355.24355,0,0,1,.22185-.2636c.27434-.05077.55151-.093.82037-.1653a3.41064,3.41064,0,0,0,1.53358-1.10447,2.57526,2.57526,0,0,0,.39862-.897c.04635-.18751.07675-.379.11187-.56921a.24475.24475,0,0,1,.16063-.206.239.239,0,0,1,.25162.04734.26059.26059,0,0,1,.07822.16986,4.15949,4.15949,0,0,0,.2561,1.00044A3.07608,3.07608,0,0,0,26.125,3.167a4.92613,4.92613,0,0,0,.92679.20828.44444.44444,0,0,1,.16212.05189A.21614.21614,0,0,1,27.31672,3.62505Z"/><path class="cls-1" d="M36.033,9.62025a.37294.37294,0,0,1-.32395.37263c-.27669.05378-.55512.09983-.82986.1622a5.44529,5.44529,0,0,0-1.30973.46718,4.91717,4.91717,0,0,0-2.03086,2.35558A7.39674,7.39674,0,0,0,31.23636,14.28a.37333.37333,0,0,1-.37061.3566.38148.38148,0,0,1-.391-.358,6.49493,6.49493,0,0,0-.41328-1.61651,4.87281,4.87281,0,0,0-2.36215-2.25787,8.31976,8.31976,0,0,0-1.66392-.42173.3708.3708,0,0,1-.33938-.34868.3783.3783,0,0,1,.34458-.40943c.42613-.07886.85663-.14445,1.27423-.25676a5.29718,5.29718,0,0,0,2.382-1.71549A3.99977,3.99977,0,0,0,30.316,5.85884c.072-.29124.11921-.58872.17376-.8841a.38017.38017,0,0,1,.24949-.32.37117.37117,0,0,1,.39082.07353.40484.40484,0,0,1,.1215.26384,6.46041,6.46041,0,0,0,.39778,1.5539,4.77785,4.77785,0,0,0,2.53259,2.36286,7.65079,7.65079,0,0,0,1.43951.3235.69059.69059,0,0,1,.25181.08059A.33573.33573,0,0,1,36.033,9.62025Z"/></svg>